<mxfile host="app.diagrams.net" modified="2023-10-03T07:13:11.837Z" agent="Mozilla/5.0 (Windows NT 10.0; Win64; x64) AppleWebKit/537.36 (KHTML, like Gecko) Chrome/117.0.0.0 Safari/537.36" etag="BiEWlBcBL4kKPQGWSYCw" version="22.0.0" type="device">
  <diagram name="Page-1" id="CwtU5W00rmsxaFziBQnV">
    <mxGraphModel dx="1035" dy="553" grid="1" gridSize="10" guides="1" tooltips="1" connect="1" arrows="1" fold="1" page="1" pageScale="1" pageWidth="850" pageHeight="1100" math="0" shadow="0">
      <root>
        <mxCell id="0" />
        <mxCell id="1" parent="0" />
        <mxCell id="Scd1je0ccUMRdUKf9A2D-1" value="&lt;h2&gt;&lt;b style=&quot;font-size: 16px;&quot;&gt;OBBMS&lt;/b&gt;&lt;/h2&gt;" style="ellipse;whiteSpace=wrap;html=1;fillColor=#dae8fc;strokeColor=#6c8ebf;shadow=1;rounded=1;" parent="1" vertex="1">
          <mxGeometry x="400" y="480" width="80" height="80" as="geometry" />
        </mxCell>
        <mxCell id="Scd1je0ccUMRdUKf9A2D-5" value="&lt;blockquote style=&quot;margin: 0 0 0 40px; border: none; padding: 0px;&quot;&gt;&lt;p style=&quot;line-height: 120%;&quot;&gt;&lt;font style=&quot;font-size: 13px;&quot;&gt;Login&lt;span style=&quot;white-space: pre;&quot;&gt;&#x9;&lt;span style=&quot;white-space: pre;&quot;&gt;&#x9;&lt;/span&gt;&lt;/span&gt;&lt;/font&gt;&lt;/p&gt;&lt;/blockquote&gt;" style="edgeStyle=orthogonalEdgeStyle;rounded=1;orthogonalLoop=1;jettySize=auto;html=1;fontStyle=0;entryX=0;entryY=0.5;entryDx=0;entryDy=0;entryPerimeter=0;" parent="1" target="Scd1je0ccUMRdUKf9A2D-1" edge="1">
          <mxGeometry x="-0.208" relative="1" as="geometry">
            <mxPoint x="201" y="520" as="sourcePoint" />
            <mxPoint x="390" y="520" as="targetPoint" />
            <mxPoint as="offset" />
          </mxGeometry>
        </mxCell>
        <mxCell id="Scd1je0ccUMRdUKf9A2D-2" value="&lt;h2 style=&quot;font-size: 14px;&quot;&gt;&lt;b&gt;ADMIN&lt;br&gt;&lt;/b&gt;&lt;b&gt;[ OWNER ]&lt;/b&gt;&lt;/h2&gt;" style="rounded=1;whiteSpace=wrap;html=1;fillColor=#f5f5f5;strokeColor=#666666;shadow=1;fontColor=#333333;" parent="1" vertex="1">
          <mxGeometry x="39" y="480" width="160" height="80" as="geometry" />
        </mxCell>
        <mxCell id="Scd1je0ccUMRdUKf9A2D-7" value="&lt;p style=&quot;line-height: 130%; font-size: 13px;&quot;&gt;&lt;span style=&quot;white-space: pre; font-size: 13px;&quot;&gt;&#x9;&lt;/span&gt;Login&lt;span style=&quot;white-space: pre; font-size: 13px;&quot;&gt;&#x9;&lt;/span&gt;&lt;span style=&quot;white-space: pre; font-size: 13px;&quot;&gt;&#x9;&lt;/span&gt;&lt;/p&gt;" style="edgeStyle=orthogonalEdgeStyle;rounded=1;orthogonalLoop=1;jettySize=auto;html=1;entryX=1;entryY=0.5;entryDx=0;entryDy=0;fontSize=13;exitX=0;exitY=0.138;exitDx=0;exitDy=0;exitPerimeter=0;" parent="1" edge="1">
          <mxGeometry x="-0.0348" y="1" relative="1" as="geometry">
            <mxPoint x="651" y="499.0400000000001" as="sourcePoint" />
            <mxPoint x="480" y="499" as="targetPoint" />
            <Array as="points">
              <mxPoint x="599" y="500" />
            </Array>
            <mxPoint as="offset" />
          </mxGeometry>
        </mxCell>
        <mxCell id="Scd1je0ccUMRdUKf9A2D-3" value="&lt;b&gt;&lt;font style=&quot;font-size: 14px;&quot;&gt;USERS&lt;/font&gt;&lt;/b&gt;" style="rounded=1;whiteSpace=wrap;html=1;fillColor=#f5f5f5;strokeColor=#666666;shadow=1;fontColor=#333333;" parent="1" vertex="1">
          <mxGeometry x="650" y="480" width="160" height="80" as="geometry" />
        </mxCell>
        <mxCell id="Scd1je0ccUMRdUKf9A2D-22" value="&lt;font style=&quot;font-size: 13px;&quot;&gt;&lt;span style=&quot;white-space: pre;&quot;&gt;&#x9;&lt;/span&gt;Fleet Details&lt;span style=&quot;white-space: pre;&quot;&gt;&#x9;&lt;span style=&quot;white-space: pre;&quot;&gt;&#x9;&lt;/span&gt;&lt;/span&gt;&lt;/font&gt;" style="endArrow=classic;html=1;rounded=1;exitX=0.813;exitY=0.004;exitDx=0;exitDy=0;exitPerimeter=0;" parent="1" edge="1">
          <mxGeometry x="-0.1273" width="50" height="50" relative="1" as="geometry">
            <mxPoint x="170.07999999999993" y="480.32000000000005" as="sourcePoint" />
            <mxPoint x="400" y="500" as="targetPoint" />
            <Array as="points">
              <mxPoint x="171" y="410" />
              <mxPoint x="371" y="410" />
              <mxPoint x="371" y="500" />
            </Array>
            <mxPoint as="offset" />
          </mxGeometry>
        </mxCell>
        <mxCell id="Scd1je0ccUMRdUKf9A2D-26" value="&lt;font style=&quot;font-size: 13px;&quot;&gt;&lt;span style=&quot;white-space: pre;&quot;&gt;&#x9;&lt;/span&gt;Facility Details&lt;span style=&quot;white-space: pre;&quot;&gt;&#x9;&lt;span style=&quot;white-space: pre;&quot;&gt;&#x9;&lt;/span&gt;&lt;/span&gt;&lt;/font&gt;" style="endArrow=classic;html=1;rounded=1;exitX=0.687;exitY=0.001;exitDx=0;exitDy=0;exitPerimeter=0;" parent="1" source="Scd1je0ccUMRdUKf9A2D-2" edge="1">
          <mxGeometry x="-0.0868" width="50" height="50" relative="1" as="geometry">
            <mxPoint x="150" y="479" as="sourcePoint" />
            <mxPoint x="400" y="490" as="targetPoint" />
            <Array as="points">
              <mxPoint x="150" y="380" />
              <mxPoint x="380" y="380" />
              <mxPoint x="380" y="490" />
            </Array>
            <mxPoint as="offset" />
          </mxGeometry>
        </mxCell>
        <mxCell id="Scd1je0ccUMRdUKf9A2D-27" value="&lt;font style=&quot;font-size: 13px;&quot;&gt;&lt;span style=&quot;white-space: pre;&quot;&gt;&#x9;&lt;/span&gt;Employee Type Details&lt;span style=&quot;white-space: pre;&quot;&gt;&#x9;&lt;span style=&quot;white-space: pre;&quot;&gt;&#x9;&lt;/span&gt;&lt;/span&gt;&lt;/font&gt;" style="endArrow=classic;html=1;rounded=1;" parent="1" edge="1">
          <mxGeometry width="50" height="50" relative="1" as="geometry">
            <mxPoint x="130" y="480" as="sourcePoint" />
            <mxPoint x="390" y="480" as="targetPoint" />
            <Array as="points">
              <mxPoint x="130" y="350" />
              <mxPoint x="390" y="350" />
            </Array>
            <mxPoint as="offset" />
          </mxGeometry>
        </mxCell>
        <mxCell id="Scd1je0ccUMRdUKf9A2D-28" value="&lt;font style=&quot;font-size: 13px;&quot;&gt;&lt;span style=&quot;white-space: pre;&quot;&gt;&#x9;&lt;/span&gt;Employee Details&lt;span style=&quot;white-space: pre;&quot;&gt;&#x9;&lt;span style=&quot;white-space: pre;&quot;&gt;&#x9;&lt;/span&gt;&lt;/span&gt;&lt;span style=&quot;white-space: pre;&quot;&gt;&lt;/span&gt;&lt;/font&gt;" style="endArrow=classic;html=1;rounded=1;exitX=0.438;exitY=0.001;exitDx=0;exitDy=0;exitPerimeter=0;" parent="1" source="Scd1je0ccUMRdUKf9A2D-2" edge="1">
          <mxGeometry width="50" height="50" relative="1" as="geometry">
            <mxPoint x="110" y="380" as="sourcePoint" />
            <mxPoint x="400" y="480" as="targetPoint" />
            <Array as="points">
              <mxPoint x="110" y="320" />
              <mxPoint x="400" y="320" />
            </Array>
          </mxGeometry>
        </mxCell>
        <mxCell id="Scd1je0ccUMRdUKf9A2D-29" value="&lt;span style=&quot;white-space: pre; font-size: 13px;&quot;&gt;&#x9;&lt;/span&gt;Country Details&lt;span style=&quot;white-space: pre; font-size: 13px;&quot;&gt;&#x9;&lt;span style=&quot;white-space: pre; font-size: 13px;&quot;&gt;&#x9;&lt;/span&gt;&lt;/span&gt;" style="endArrow=classic;html=1;rounded=1;fontSize=13;exitX=0.313;exitY=-0.005;exitDx=0;exitDy=0;exitPerimeter=0;" parent="1" edge="1">
          <mxGeometry width="50" height="50" relative="1" as="geometry">
            <mxPoint x="90.07999999999993" y="479.6" as="sourcePoint" />
            <mxPoint x="411" y="480" as="targetPoint" />
            <Array as="points">
              <mxPoint x="91" y="290" />
              <mxPoint x="411" y="290" />
            </Array>
          </mxGeometry>
        </mxCell>
        <mxCell id="Scd1je0ccUMRdUKf9A2D-33" value="" style="endArrow=classic;html=1;rounded=1;entryX=0.938;entryY=1.008;entryDx=0;entryDy=0;entryPerimeter=0;" parent="1" target="Scd1je0ccUMRdUKf9A2D-2" edge="1">
          <mxGeometry width="50" height="50" relative="1" as="geometry">
            <mxPoint x="400" y="530" as="sourcePoint" />
            <mxPoint x="179.32" y="562.08" as="targetPoint" />
            <Array as="points">
              <mxPoint x="360.36" y="530" />
              <mxPoint x="360" y="600" />
              <mxPoint x="190" y="600" />
            </Array>
          </mxGeometry>
        </mxCell>
        <mxCell id="SQCGXfdlenE56GU6JJZ9-9" value="&#x9;&lt;span style=&quot;font-family: Helvetica; font-size: 13px;&quot;&gt;&lt;span style=&quot;white-space: pre;&quot;&gt;&#x9;&lt;/span&gt;Inquiry Details&lt;/span&gt;&lt;span style=&quot;border-color: var(--border-color); font-family: Helvetica; font-size: 13px;&quot;&gt;&lt;span style=&quot;white-space: pre;&quot;&gt;&amp;nbsp;&amp;nbsp;&amp;nbsp;&amp;nbsp;&lt;/span&gt;&lt;/span&gt;&lt;span style=&quot;border-color: var(--border-color); font-family: Helvetica; font-size: 13px;&quot;&gt;&lt;span style=&quot;white-space: pre;&quot;&gt;&amp;nbsp;&amp;nbsp;&amp;nbsp;&amp;nbsp;&lt;/span&gt;&lt;/span&gt;" style="edgeLabel;html=1;align=center;verticalAlign=middle;resizable=0;points=[];fontSize=20;fontFamily=Architects Daughter;" parent="Scd1je0ccUMRdUKf9A2D-33" vertex="1" connectable="0">
          <mxGeometry x="0.1878" y="1" relative="1" as="geometry">
            <mxPoint x="-10" as="offset" />
          </mxGeometry>
        </mxCell>
        <mxCell id="Scd1je0ccUMRdUKf9A2D-34" value="&lt;font style=&quot;font-size: 13px;&quot;&gt;&lt;span style=&quot;white-space: pre;&quot;&gt;&#x9;&lt;/span&gt;Schedule Details&lt;span style=&quot;white-space: pre;&quot;&gt;&#x9;&lt;/span&gt;&lt;span style=&quot;white-space: pre;&quot;&gt;&#x9;&lt;/span&gt;&lt;/font&gt;" style="endArrow=classic;html=1;rounded=1;exitX=0.813;exitY=0.998;exitDx=0;exitDy=0;exitPerimeter=0;entryX=0;entryY=0.75;entryDx=0;entryDy=0;entryPerimeter=0;" parent="1" source="Scd1je0ccUMRdUKf9A2D-2" target="Scd1je0ccUMRdUKf9A2D-1" edge="1">
          <mxGeometry x="-0.1277" width="50" height="50" relative="1" as="geometry">
            <mxPoint x="130" y="590" as="sourcePoint" />
            <mxPoint x="370" y="540" as="targetPoint" />
            <Array as="points">
              <mxPoint x="170" y="630" />
              <mxPoint x="370" y="630" />
              <mxPoint x="370" y="540" />
            </Array>
            <mxPoint as="offset" />
          </mxGeometry>
        </mxCell>
        <mxCell id="Scd1je0ccUMRdUKf9A2D-36" value="&lt;font style=&quot;font-size: 13px;&quot;&gt;&lt;span style=&quot;white-space: pre;&quot;&gt;&#x9;&lt;/span&gt;Stand Details&lt;span style=&quot;white-space: pre;&quot;&gt;&#x9;&lt;span style=&quot;white-space: pre;&quot;&gt;&#x9;&lt;/span&gt;&lt;/span&gt;&lt;/font&gt;" style="endArrow=classic;html=1;rounded=1;exitX=0.691;exitY=0.999;exitDx=0;exitDy=0;exitPerimeter=0;" parent="1" source="Scd1je0ccUMRdUKf9A2D-2" edge="1">
          <mxGeometry x="-0.0848" width="50" height="50" relative="1" as="geometry">
            <mxPoint x="190" y="561" as="sourcePoint" />
            <mxPoint x="400" y="551" as="targetPoint" />
            <Array as="points">
              <mxPoint x="150" y="660" />
              <mxPoint x="380" y="660" />
              <mxPoint x="380" y="551" />
            </Array>
            <mxPoint as="offset" />
          </mxGeometry>
        </mxCell>
        <mxCell id="Scd1je0ccUMRdUKf9A2D-37" value="&#x9;&lt;span style=&quot;font-size: 13px;&quot;&gt;&lt;span style=&quot;white-space: pre;&quot;&gt;&#x9;&lt;/span&gt;Tax Details&lt;/span&gt;&lt;span style=&quot;border-color: var(--border-color); font-size: 13px;&quot;&gt;&lt;span style=&quot;white-space: pre;&quot;&gt;&amp;nbsp;&amp;nbsp;&amp;nbsp;&amp;nbsp;&lt;/span&gt;&lt;/span&gt;&lt;span style=&quot;border-color: var(--border-color); font-size: 13px;&quot;&gt;&lt;span style=&quot;white-space: pre;&quot;&gt;&amp;nbsp;&amp;nbsp;&amp;nbsp;&amp;nbsp;&lt;/span&gt;&lt;/span&gt;" style="endArrow=classic;html=1;rounded=1;exitX=0.568;exitY=1.002;exitDx=0;exitDy=0;exitPerimeter=0;" parent="1" source="Scd1je0ccUMRdUKf9A2D-2" edge="1">
          <mxGeometry x="-0.0003" width="50" height="50" relative="1" as="geometry">
            <mxPoint x="120" y="580" as="sourcePoint" />
            <mxPoint x="390" y="560" as="targetPoint" />
            <Array as="points">
              <mxPoint x="130" y="690" />
              <mxPoint x="390" y="690" />
            </Array>
            <mxPoint as="offset" />
          </mxGeometry>
        </mxCell>
        <mxCell id="Scd1je0ccUMRdUKf9A2D-38" value="&lt;font style=&quot;font-size: 13px;&quot;&gt;&lt;span style=&quot;white-space: pre;&quot;&gt;&#x9;&lt;/span&gt;Trip Details&lt;span style=&quot;white-space: pre;&quot;&gt;&#x9;&lt;/span&gt;&lt;span style=&quot;white-space: pre;&quot;&gt;&#x9;&lt;/span&gt;&lt;/font&gt;" style="endArrow=classic;html=1;rounded=1;" parent="1" edge="1">
          <mxGeometry width="50" height="50" relative="1" as="geometry">
            <mxPoint x="110" y="560" as="sourcePoint" />
            <mxPoint x="400" y="560" as="targetPoint" />
            <Array as="points">
              <mxPoint x="110" y="720" />
              <mxPoint x="400" y="720" />
            </Array>
          </mxGeometry>
        </mxCell>
        <mxCell id="Scd1je0ccUMRdUKf9A2D-39" value="&lt;font style=&quot;font-size: 13px;&quot;&gt;&lt;span style=&quot;white-space: pre;&quot;&gt;&#x9;&lt;/span&gt;Vehical Details&lt;span style=&quot;white-space: pre;&quot;&gt;&#x9;&lt;/span&gt;&lt;/font&gt;" style="endArrow=classic;html=1;rounded=1;" parent="1" edge="1">
          <mxGeometry width="50" height="50" relative="1" as="geometry">
            <mxPoint x="90" y="560" as="sourcePoint" />
            <mxPoint x="410" y="560" as="targetPoint" />
            <Array as="points">
              <mxPoint x="90" y="750" />
              <mxPoint x="410" y="750" />
            </Array>
          </mxGeometry>
        </mxCell>
        <mxCell id="SQCGXfdlenE56GU6JJZ9-5" value="&lt;p style=&quot;line-height: 130%; font-size: 13px;&quot;&gt;&lt;span style=&quot;white-space: pre; font-size: 13px;&quot;&gt;&#x9;&lt;/span&gt;Registration&lt;span style=&quot;white-space: pre; font-size: 13px;&quot;&gt;&#x9;&lt;/span&gt;&lt;span style=&quot;white-space: pre; font-size: 13px;&quot;&gt;&#x9;&lt;/span&gt;&lt;/p&gt;" style="edgeStyle=orthogonalEdgeStyle;rounded=1;orthogonalLoop=1;jettySize=auto;html=1;fontSize=13;exitX=0.003;exitY=0.71;exitDx=0;exitDy=0;exitPerimeter=0;" parent="1" edge="1">
          <mxGeometry x="-0.062" y="1" relative="1" as="geometry">
            <mxPoint x="649.48" y="539.4" as="sourcePoint" />
            <mxPoint x="480" y="540" as="targetPoint" />
            <Array as="points">
              <mxPoint x="570" y="539" />
            </Array>
            <mxPoint as="offset" />
          </mxGeometry>
        </mxCell>
        <mxCell id="SQCGXfdlenE56GU6JJZ9-10" value="&lt;font style=&quot;font-size: 13px;&quot;&gt;&lt;span style=&quot;white-space: pre;&quot;&gt;&#x9;&lt;/span&gt;Inquiry Details&lt;span style=&quot;border-color: var(--border-color);&quot;&gt;&lt;/span&gt;&lt;span style=&quot;border-color: var(--border-color);&quot;&gt;&lt;span style=&quot;border-color: var(--border-color);&quot;&gt;&amp;nbsp;&amp;nbsp;&amp;nbsp;&amp;nbsp;&lt;/span&gt;&lt;/span&gt;&lt;span style=&quot;border-color: var(--border-color);&quot;&gt;&lt;span style=&quot;border-color: var(--border-color);&quot;&gt;&amp;nbsp;&amp;nbsp;&amp;nbsp;&amp;nbsp;&lt;/span&gt;&lt;/span&gt;&lt;/font&gt;" style="endArrow=classic;html=1;rounded=1;" parent="1" edge="1">
          <mxGeometry x="-0.1895" width="50" height="50" relative="1" as="geometry">
            <mxPoint x="660" y="480" as="sourcePoint" />
            <mxPoint x="480" y="490" as="targetPoint" />
            <Array as="points">
              <mxPoint x="659" y="440" />
              <mxPoint x="520" y="440" />
              <mxPoint x="520" y="490" />
            </Array>
            <mxPoint as="offset" />
          </mxGeometry>
        </mxCell>
        <mxCell id="SQCGXfdlenE56GU6JJZ9-13" value="&lt;font style=&quot;font-size: 13px;&quot;&gt;&lt;span style=&quot;white-space: pre;&quot;&gt;&#x9;&lt;/span&gt;Fleet Details&lt;span style=&quot;white-space: pre;&quot;&gt;&#x9;&lt;span style=&quot;white-space: pre;&quot;&gt;&#x9;&lt;/span&gt;&lt;/span&gt;&lt;/font&gt;" style="endArrow=classic;html=1;rounded=1;entryX=0.129;entryY=0.023;entryDx=0;entryDy=0;entryPerimeter=0;" parent="1" edge="1">
          <mxGeometry x="0.0392" width="50" height="50" relative="1" as="geometry">
            <mxPoint x="509" y="480" as="sourcePoint" />
            <mxPoint x="679.64" y="479.8399999999999" as="targetPoint" />
            <Array as="points">
              <mxPoint x="509" y="480" />
              <mxPoint x="509" y="410" />
              <mxPoint x="679" y="410" />
            </Array>
            <mxPoint as="offset" />
          </mxGeometry>
        </mxCell>
        <mxCell id="SQCGXfdlenE56GU6JJZ9-14" value="&lt;font style=&quot;font-size: 13px;&quot;&gt;&lt;span style=&quot;white-space: pre;&quot;&gt;&#x9;&lt;/span&gt;Facility Details&lt;span style=&quot;white-space: pre;&quot;&gt;&#x9;&lt;span style=&quot;white-space: pre;&quot;&gt;&#x9;&lt;/span&gt;&lt;/span&gt;&lt;/font&gt;" style="endArrow=classic;html=1;rounded=1;entryX=0.322;entryY=-0.009;entryDx=0;entryDy=0;entryPerimeter=0;" parent="1" edge="1">
          <mxGeometry x="-0.0186" width="50" height="50" relative="1" as="geometry">
            <mxPoint x="500" y="481" as="sourcePoint" />
            <mxPoint x="701.52" y="480.28" as="targetPoint" />
            <Array as="points">
              <mxPoint x="500" y="381" />
              <mxPoint x="700" y="381" />
            </Array>
            <mxPoint as="offset" />
          </mxGeometry>
        </mxCell>
        <mxCell id="SQCGXfdlenE56GU6JJZ9-15" value="&lt;font style=&quot;font-size: 13px;&quot;&gt;&lt;span style=&quot;&quot;&gt;&lt;span style=&quot;white-space: pre;&quot;&gt;&amp;nbsp;&amp;nbsp;&amp;nbsp;&amp;nbsp;&lt;/span&gt;&lt;/span&gt;Employee Type&amp;nbsp;Details&lt;span style=&quot;&quot;&gt;&lt;span style=&quot;white-space: pre;&quot;&gt;&amp;nbsp;&amp;nbsp;&amp;nbsp;&amp;nbsp;&lt;/span&gt;&lt;/span&gt;&lt;/font&gt;" style="endArrow=classic;html=1;rounded=1;entryX=0.438;entryY=0;entryDx=0;entryDy=0;entryPerimeter=0;" parent="1" target="Scd1je0ccUMRdUKf9A2D-3" edge="1">
          <mxGeometry width="50" height="50" relative="1" as="geometry">
            <mxPoint x="489" y="480" as="sourcePoint" />
            <mxPoint x="749" y="480" as="targetPoint" />
            <Array as="points">
              <mxPoint x="489" y="350" />
              <mxPoint x="720" y="350" />
            </Array>
          </mxGeometry>
        </mxCell>
        <mxCell id="SQCGXfdlenE56GU6JJZ9-16" value="&lt;font style=&quot;font-size: 13px;&quot;&gt;&lt;span style=&quot;white-space: pre;&quot;&gt;&#x9;&lt;/span&gt;Employee Details&lt;span style=&quot;white-space: pre;&quot;&gt;&#x9;&lt;span style=&quot;white-space: pre;&quot;&gt;&#x9;&lt;/span&gt;&lt;/span&gt;&lt;span style=&quot;white-space: pre;&quot;&gt;&lt;/span&gt;&lt;/font&gt;" style="endArrow=classic;html=1;rounded=1;exitX=0.438;exitY=0.001;exitDx=0;exitDy=0;exitPerimeter=0;entryX=0.562;entryY=0.004;entryDx=0;entryDy=0;entryPerimeter=0;" parent="1" target="Scd1je0ccUMRdUKf9A2D-3" edge="1">
          <mxGeometry width="50" height="50" relative="1" as="geometry">
            <mxPoint x="480" y="480" as="sourcePoint" />
            <mxPoint x="771" y="480" as="targetPoint" />
            <Array as="points">
              <mxPoint x="481" y="320" />
              <mxPoint x="740" y="320" />
            </Array>
          </mxGeometry>
        </mxCell>
        <mxCell id="SQCGXfdlenE56GU6JJZ9-17" value="&lt;span style=&quot;white-space: pre; font-size: 13px;&quot;&gt;&#x9;&lt;/span&gt;Country Details&lt;span style=&quot;white-space: pre; font-size: 13px;&quot;&gt;&#x9;&lt;span style=&quot;white-space: pre; font-size: 13px;&quot;&gt;&#x9;&lt;/span&gt;&lt;/span&gt;" style="endArrow=classic;html=1;rounded=1;fontSize=13;exitX=0.313;exitY=-0.005;exitDx=0;exitDy=0;exitPerimeter=0;entryX=0.687;entryY=-0.006;entryDx=0;entryDy=0;entryPerimeter=0;" parent="1" target="Scd1je0ccUMRdUKf9A2D-3" edge="1">
          <mxGeometry width="50" height="50" relative="1" as="geometry">
            <mxPoint x="470.0799999999999" y="480.6" as="sourcePoint" />
            <mxPoint x="791" y="481" as="targetPoint" />
            <Array as="points">
              <mxPoint x="471" y="291" />
              <mxPoint x="760" y="290" />
            </Array>
          </mxGeometry>
        </mxCell>
        <mxCell id="SQCGXfdlenE56GU6JJZ9-20" value="&lt;font style=&quot;font-size: 13px;&quot;&gt;&lt;span style=&quot;white-space: pre;&quot;&gt;&#x9;&lt;/span&gt;Schedule Details&lt;span style=&quot;white-space: pre;&quot;&gt;&#x9;&lt;/span&gt;&lt;span style=&quot;white-space: pre;&quot;&gt;&#x9;&lt;/span&gt;&lt;/font&gt;" style="endArrow=classic;html=1;rounded=1;entryX=0.185;entryY=0.999;entryDx=0;entryDy=0;entryPerimeter=0;" parent="1" target="Scd1je0ccUMRdUKf9A2D-3" edge="1">
          <mxGeometry x="0.032" width="50" height="50" relative="1" as="geometry">
            <mxPoint x="510" y="560" as="sourcePoint" />
            <mxPoint x="694" y="562" as="targetPoint" />
            <Array as="points">
              <mxPoint x="510" y="630" />
              <mxPoint x="680" y="630" />
              <mxPoint x="680" y="610" />
            </Array>
            <mxPoint as="offset" />
          </mxGeometry>
        </mxCell>
        <mxCell id="SQCGXfdlenE56GU6JJZ9-21" value="&lt;font style=&quot;font-size: 13px;&quot;&gt;&lt;span style=&quot;white-space: pre;&quot;&gt;&#x9;&lt;/span&gt;Stand Details&lt;span style=&quot;white-space: pre;&quot;&gt;&#x9;&lt;span style=&quot;white-space: pre;&quot;&gt;&#x9;&lt;/span&gt;&lt;/span&gt;&lt;/font&gt;" style="endArrow=classic;html=1;rounded=1;exitX=0.691;exitY=0.999;exitDx=0;exitDy=0;exitPerimeter=0;entryX=0.313;entryY=0.993;entryDx=0;entryDy=0;entryPerimeter=0;" parent="1" target="Scd1je0ccUMRdUKf9A2D-3" edge="1">
          <mxGeometry x="-0.0014" width="50" height="50" relative="1" as="geometry">
            <mxPoint x="500" y="560" as="sourcePoint" />
            <mxPoint x="750" y="551" as="targetPoint" />
            <Array as="points">
              <mxPoint x="500" y="660" />
              <mxPoint x="700" y="660" />
            </Array>
            <mxPoint as="offset" />
          </mxGeometry>
        </mxCell>
        <mxCell id="SQCGXfdlenE56GU6JJZ9-22" value="&#x9;&lt;span style=&quot;font-size: 13px;&quot;&gt;&lt;span style=&quot;white-space: pre;&quot;&gt;&#x9;&lt;/span&gt;Tax Details&lt;/span&gt;&lt;span style=&quot;border-color: var(--border-color); font-size: 13px;&quot;&gt;&lt;span style=&quot;white-space: pre;&quot;&gt;&amp;nbsp;&amp;nbsp;&amp;nbsp;&amp;nbsp;&lt;/span&gt;&lt;/span&gt;&lt;span style=&quot;border-color: var(--border-color); font-size: 13px;&quot;&gt;&lt;span style=&quot;white-space: pre;&quot;&gt;&amp;nbsp;&amp;nbsp;&amp;nbsp;&amp;nbsp;&lt;/span&gt;&lt;/span&gt;" style="endArrow=classic;html=1;rounded=1;entryX=0.436;entryY=1.001;entryDx=0;entryDy=0;entryPerimeter=0;" parent="1" target="Scd1je0ccUMRdUKf9A2D-3" edge="1">
          <mxGeometry x="-0.0003" width="50" height="50" relative="1" as="geometry">
            <mxPoint x="490" y="560" as="sourcePoint" />
            <mxPoint x="750" y="561" as="targetPoint" />
            <Array as="points">
              <mxPoint x="490" y="691" />
              <mxPoint x="720" y="691" />
            </Array>
            <mxPoint as="offset" />
          </mxGeometry>
        </mxCell>
        <mxCell id="SQCGXfdlenE56GU6JJZ9-23" value="&lt;font style=&quot;font-size: 13px;&quot;&gt;&lt;span style=&quot;white-space: pre;&quot;&gt;&#x9;&lt;/span&gt;Trip Details&lt;span style=&quot;white-space: pre;&quot;&gt;&#x9;&lt;/span&gt;&lt;span style=&quot;white-space: pre;&quot;&gt;&#x9;&lt;/span&gt;&lt;/font&gt;" style="endArrow=classic;html=1;rounded=1;entryX=0.56;entryY=0.994;entryDx=0;entryDy=0;entryPerimeter=0;" parent="1" target="Scd1je0ccUMRdUKf9A2D-3" edge="1">
          <mxGeometry width="50" height="50" relative="1" as="geometry">
            <mxPoint x="480" y="560" as="sourcePoint" />
            <mxPoint x="770" y="560" as="targetPoint" />
            <Array as="points">
              <mxPoint x="480" y="720" />
              <mxPoint x="740" y="720" />
            </Array>
          </mxGeometry>
        </mxCell>
        <mxCell id="SQCGXfdlenE56GU6JJZ9-24" value="&lt;font style=&quot;font-size: 13px;&quot;&gt;&lt;span style=&quot;white-space: pre;&quot;&gt;&#x9;&lt;/span&gt;Vehical Details&lt;span style=&quot;white-space: pre;&quot;&gt;&#x9;&lt;/span&gt;&lt;/font&gt;" style="endArrow=classic;html=1;rounded=1;entryX=0.682;entryY=1.001;entryDx=0;entryDy=0;entryPerimeter=0;" parent="1" target="Scd1je0ccUMRdUKf9A2D-3" edge="1">
          <mxGeometry width="50" height="50" relative="1" as="geometry">
            <mxPoint x="469" y="560" as="sourcePoint" />
            <mxPoint x="789" y="560" as="targetPoint" />
            <Array as="points">
              <mxPoint x="469" y="750" />
              <mxPoint x="760" y="750" />
            </Array>
          </mxGeometry>
        </mxCell>
        <mxCell id="YWdtsJ-HY_Ud3peH31Tm-1" value="" style="endArrow=classic;startArrow=classic;html=1;rounded=1;" edge="1" parent="1">
          <mxGeometry width="50" height="50" relative="1" as="geometry">
            <mxPoint x="70" y="560" as="sourcePoint" />
            <mxPoint x="420" y="560" as="targetPoint" />
            <Array as="points">
              <mxPoint x="70" y="780" />
              <mxPoint x="420" y="780" />
            </Array>
          </mxGeometry>
        </mxCell>
        <mxCell id="YWdtsJ-HY_Ud3peH31Tm-2" value="&#x9;&lt;span style=&quot;font-size: 13px;&quot;&gt;&lt;span style=&quot;white-space: pre;&quot;&gt;&#x9;&lt;/span&gt;Passenger Details&lt;span style=&quot;white-space: pre;&quot;&gt;&#x9;&lt;/span&gt;&lt;span style=&quot;white-space: pre;&quot;&gt;&#x9;&lt;/span&gt;&lt;/span&gt;" style="edgeLabel;html=1;align=center;verticalAlign=middle;resizable=0;points=[];" vertex="1" connectable="0" parent="YWdtsJ-HY_Ud3peH31Tm-1">
          <mxGeometry x="0.036" y="1" relative="1" as="geometry">
            <mxPoint as="offset" />
          </mxGeometry>
        </mxCell>
        <mxCell id="YWdtsJ-HY_Ud3peH31Tm-3" value="" style="endArrow=classic;startArrow=classic;html=1;rounded=1;entryX=0.813;entryY=1;entryDx=0;entryDy=0;entryPerimeter=0;" edge="1" parent="1" target="Scd1je0ccUMRdUKf9A2D-3">
          <mxGeometry width="50" height="50" relative="1" as="geometry">
            <mxPoint x="459" y="560" as="sourcePoint" />
            <mxPoint x="809" y="560" as="targetPoint" />
            <Array as="points">
              <mxPoint x="459" y="780" />
              <mxPoint x="780" y="780" />
            </Array>
          </mxGeometry>
        </mxCell>
        <mxCell id="YWdtsJ-HY_Ud3peH31Tm-4" value="&#x9;&lt;span style=&quot;font-size: 13px;&quot;&gt;&lt;span style=&quot;white-space: pre;&quot;&gt;&#x9;&lt;/span&gt;Passenger Details&lt;span style=&quot;white-space: pre;&quot;&gt;&#x9;&lt;/span&gt;&lt;span style=&quot;white-space: pre;&quot;&gt;&#x9;&lt;/span&gt;&lt;/span&gt;" style="edgeLabel;html=1;align=center;verticalAlign=middle;resizable=0;points=[];" vertex="1" connectable="0" parent="YWdtsJ-HY_Ud3peH31Tm-3">
          <mxGeometry x="0.036" y="1" relative="1" as="geometry">
            <mxPoint x="-13" as="offset" />
          </mxGeometry>
        </mxCell>
        <mxCell id="YWdtsJ-HY_Ud3peH31Tm-7" value="" style="endArrow=classic;startArrow=classic;html=1;rounded=1;" edge="1" parent="1">
          <mxGeometry width="50" height="50" relative="1" as="geometry">
            <mxPoint x="70" y="480" as="sourcePoint" />
            <mxPoint x="420" y="480" as="targetPoint" />
            <Array as="points">
              <mxPoint x="70" y="260" />
              <mxPoint x="420" y="260" />
            </Array>
          </mxGeometry>
        </mxCell>
        <mxCell id="YWdtsJ-HY_Ud3peH31Tm-8" value="&#x9;&lt;span style=&quot;font-size: 13px;&quot;&gt;&lt;span style=&quot;white-space: pre;&quot;&gt;&#x9;&lt;/span&gt;Ticket Details&lt;span style=&quot;white-space: pre;&quot;&gt;&#x9;&lt;/span&gt;&lt;span style=&quot;white-space: pre;&quot;&gt;&#x9;&lt;/span&gt;&lt;/span&gt;" style="edgeLabel;html=1;align=center;verticalAlign=middle;resizable=0;points=[];" vertex="1" connectable="0" parent="YWdtsJ-HY_Ud3peH31Tm-7">
          <mxGeometry x="-0.1742" y="-2" relative="1" as="geometry">
            <mxPoint x="74" as="offset" />
          </mxGeometry>
        </mxCell>
        <mxCell id="YWdtsJ-HY_Ud3peH31Tm-9" value="" style="endArrow=classic;startArrow=classic;html=1;rounded=1;" edge="1" parent="1">
          <mxGeometry width="50" height="50" relative="1" as="geometry">
            <mxPoint x="460" y="480" as="sourcePoint" />
            <mxPoint x="780" y="480" as="targetPoint" />
            <Array as="points">
              <mxPoint x="460" y="260" />
              <mxPoint x="780" y="260" />
            </Array>
          </mxGeometry>
        </mxCell>
        <mxCell id="YWdtsJ-HY_Ud3peH31Tm-10" value="&#x9;&lt;span style=&quot;font-size: 13px;&quot;&gt;&lt;span style=&quot;white-space: pre;&quot;&gt;&#x9;&lt;/span&gt;Ticket Details&lt;span style=&quot;white-space: pre;&quot;&gt;&#x9;&lt;/span&gt;&lt;span style=&quot;white-space: pre;&quot;&gt;&#x9;&lt;/span&gt;&lt;/span&gt;" style="edgeLabel;html=1;align=center;verticalAlign=middle;resizable=0;points=[];" vertex="1" connectable="0" parent="YWdtsJ-HY_Ud3peH31Tm-9">
          <mxGeometry x="-0.1742" y="-2" relative="1" as="geometry">
            <mxPoint x="56" as="offset" />
          </mxGeometry>
        </mxCell>
        <mxCell id="YWdtsJ-HY_Ud3peH31Tm-11" value="&lt;font style=&quot;font-size: 13px;&quot;&gt;&lt;span style=&quot;white-space: pre;&quot;&gt;&#x9;&lt;/span&gt;Location Details&lt;span style=&quot;white-space: pre;&quot;&gt;&#x9;&lt;/span&gt;&lt;/font&gt;" style="endArrow=classic;html=1;rounded=1;exitX=0.944;exitY=0;exitDx=0;exitDy=0;exitPerimeter=0;" edge="1" parent="1" source="Scd1je0ccUMRdUKf9A2D-2">
          <mxGeometry x="-0.1875" width="50" height="50" relative="1" as="geometry">
            <mxPoint x="180.07999999999993" y="490.32000000000005" as="sourcePoint" />
            <mxPoint x="400" y="510" as="targetPoint" />
            <Array as="points">
              <mxPoint x="190" y="440" />
              <mxPoint x="360" y="440" />
              <mxPoint x="360" y="510" />
            </Array>
            <mxPoint as="offset" />
          </mxGeometry>
        </mxCell>
        <mxCell id="YWdtsJ-HY_Ud3peH31Tm-12" value="&lt;font style=&quot;font-size: 13px;&quot;&gt;&lt;span style=&quot;white-space: pre;&quot;&gt;&#x9;&lt;/span&gt;Location Details&lt;span style=&quot;white-space: pre;&quot;&gt;&#x9;&lt;/span&gt;&lt;/font&gt;" style="endArrow=classic;html=1;rounded=1;entryX=0.059;entryY=1.003;entryDx=0;entryDy=0;entryPerimeter=0;" edge="1" parent="1" target="Scd1je0ccUMRdUKf9A2D-3">
          <mxGeometry x="0.1956" width="50" height="50" relative="1" as="geometry">
            <mxPoint x="480" y="550" as="sourcePoint" />
            <mxPoint x="650.8799999999999" y="563.6" as="targetPoint" />
            <Array as="points">
              <mxPoint x="520" y="550" />
              <mxPoint x="520" y="600" />
              <mxPoint x="660" y="600" />
            </Array>
            <mxPoint as="offset" />
          </mxGeometry>
        </mxCell>
      </root>
    </mxGraphModel>
  </diagram>
</mxfile>
